<svg width="188" height="88" viewBox="0 0 188 88" fill="none" xmlns="http://www.w3.org/2000/svg">
<g clip-path="url(#clip0_242_326)">
<path d="M137.991 38.6818C137.659 33.0836 134.662 29.123 128.999 26.8326L123.198 25.2272C120.372 24.6813 118.927 23.8139 118.863 22.6258C118.82 21.8982 119.045 21.2561 119.527 20.71C120.008 20.1748 120.64 19.8641 121.442 19.8002C123.84 19.6611 125.916 20.5066 127.65 22.348L136.299 14.1593C133.623 11.3333 130.391 9.45977 126.58 8.51806C124.45 7.99384 122.437 7.80117 120.564 7.95076C116.571 8.19723 113.253 9.83483 110.62 12.8426C107.944 15.8503 106.734 19.3506 106.981 23.3433C107.313 28.8024 110.106 32.7414 115.351 35.1709L121.035 36.9266C123.251 37.3443 124.771 37.8368 125.606 38.4041C125.927 38.6287 126.099 38.9714 126.141 39.4317C126.184 40.3524 125.991 41.0053 125.574 41.3797C125.017 41.9039 124.104 42.1817 122.844 42.2895C121.079 42.4405 113.272 42.5711 104.844 42.6304C103.936 45.2921 102.399 47.6958 100.251 49.8532C98.2413 51.8708 96.8197 53.3496 94.3594 54.2776L123.23 54.1713C127.563 54.1554 131.028 52.5467 133.634 50.1571C136.837 47.2196 138.29 43.3816 137.991 38.6825V38.6818Z" fill="#A56A4A"/>
<path d="M139.242 17.3341V62.3334H166.966V50.4523H151.124V17.3341H139.242Z" fill="#A56A4A"/>
<path d="M46.1858 17.3341L31.7568 34.8885V17.3341H19.875V62.3334H31.7568V53.6422L37.0982 47.1554L50.6389 64.9736H65.5063L44.869 37.6823L61.5888 17.3341H46.1858Z" fill="#411001"/>
<path d="M77.3818 43.5482V29.2155H84.8849C86.8658 29.2155 88.5568 29.9219 89.9588 31.3242C91.3611 32.7157 92.0675 34.4176 92.0675 36.3977C92.0675 38.3675 91.3611 40.048 89.9588 41.4503C88.5566 42.8521 86.8656 43.5482 84.8849 43.5482H77.3818ZM65.5 17.3341V64.9736L77.3818 80.6859V55.4617H84.8849C90.1517 55.4617 94.6471 53.5995 98.3618 49.8528C102.086 46.1277 103.949 41.6429 103.949 36.3977C103.949 31.1317 102.086 26.6359 98.3618 22.9109C94.6468 19.1967 90.1515 17.3341 84.8849 17.3341H65.5Z" fill="#A56A4A"/>
<path d="M0.97285 69.8416L0.78125 0.775208H164.836L186.109 19.0096L186.296 86.4688H19.9396L0.97285 69.8416Z" stroke="#A56A4A" stroke-width="1.55038" stroke-miterlimit="2.61313"/>
<path d="M93.4347 63.7837L92.451 62.0874H91.5462V63.7837H90.7812V59.1281H92.6435C93.0603 59.1281 93.4142 59.2732 93.7048 59.5638C93.995 59.854 94.1403 60.2078 94.1403 60.6242C94.1403 60.9213 94.0547 61.193 93.8839 61.4386C93.7136 61.6851 93.4905 61.8634 93.2157 61.9742L94.2729 63.7835H93.4349L93.4347 63.7837ZM91.5462 59.8463V61.4026H92.6433C92.8473 61.4026 93.02 61.3274 93.1621 61.1763C93.3038 61.0259 93.3749 60.8418 93.3749 60.6245C93.3749 60.4071 93.3038 60.223 93.1621 60.0726C93.02 59.9217 92.8473 59.8463 92.6433 59.8463H91.5462ZM97.0265 63.8699C96.3257 63.8699 95.7453 63.6382 95.2836 63.1748C94.8226 62.7115 94.592 62.1384 94.592 61.4556C94.592 60.7734 94.8226 60.2001 95.2836 59.737C95.7451 59.2732 96.3257 59.0415 97.0265 59.0415C97.4476 59.0415 97.8368 59.1416 98.1937 59.3409C98.5505 59.5404 98.8289 59.8111 99.0282 60.1523L98.3634 60.5383C98.2391 60.3077 98.0584 60.1249 97.821 59.9894C97.5839 59.8542 97.319 59.7865 97.0265 59.7865C96.5299 59.7865 96.1274 59.9438 95.8192 60.2588C95.5108 60.5732 95.3569 60.9725 95.3569 61.4554C95.3569 61.9389 95.5108 62.3384 95.8192 62.6528C96.1272 62.9676 96.5297 63.1251 97.0265 63.1251C97.319 63.1251 97.585 63.0572 97.8248 62.9222C98.0638 62.7869 98.2436 62.6039 98.3634 62.3733L99.0282 62.7524C98.8332 63.0936 98.5574 63.3654 98.2001 63.5668C97.8433 63.7689 97.4521 63.8697 97.0265 63.8697V63.8699ZM102.201 59.1281H102.866V63.7837H102.1V59.9459L101.163 60.2123L100.977 59.5604L102.201 59.1281ZM105.193 60.884C105.637 60.884 106.011 61.0158 106.317 61.2794C106.623 61.5432 106.776 61.908 106.776 62.3735C106.776 62.8392 106.619 63.2046 106.304 63.4706C105.989 63.737 105.604 63.8697 105.147 63.8697C104.779 63.8697 104.453 63.7841 104.169 63.6138C103.885 63.443 103.684 63.1958 103.564 62.8722L104.222 62.4931C104.347 62.9142 104.655 63.1251 105.147 63.1251C105.408 63.1251 105.618 63.0572 105.776 62.9222C105.933 62.7869 106.011 62.6039 106.011 62.3733C106.011 62.1427 105.934 61.9609 105.779 61.8279C105.623 61.6948 105.417 61.6283 105.161 61.6283H103.804L103.983 59.1279H106.577V59.846H104.688L104.608 60.884H105.194H105.193ZM110.324 63.2115C110.003 63.6502 109.554 63.8699 108.977 63.8699C108.401 63.8699 107.952 63.6502 107.631 63.2115C107.309 62.7728 107.148 62.1873 107.148 61.4556C107.148 60.7243 107.309 60.1392 107.631 59.7003C107.952 59.2612 108.401 59.0415 108.977 59.0415C109.554 59.0415 110.003 59.2612 110.324 59.7003C110.645 60.139 110.806 60.7241 110.806 61.4556C110.806 62.1873 110.645 62.7728 110.324 63.2115ZM108.977 63.1253C109.323 63.1253 109.587 62.9809 109.769 62.6926C109.95 62.4046 110.041 61.9922 110.041 61.4556C110.041 60.9194 109.95 60.507 109.769 60.219C109.587 59.9309 109.323 59.7867 108.977 59.7867C108.636 59.7867 108.373 59.9311 108.189 60.219C108.005 60.507 107.913 60.9194 107.913 61.4556C107.913 61.9922 108.005 62.4046 108.189 62.6926C108.373 62.9811 108.636 63.1253 108.977 63.1253ZM112.868 60.884C113.311 60.884 113.686 61.0158 113.992 61.2794C114.298 61.5432 114.451 61.908 114.451 62.3735C114.451 62.8392 114.293 63.2046 113.979 63.4706C113.664 63.737 113.278 63.8697 112.822 63.8697C112.453 63.8697 112.127 63.7841 111.844 63.6138C111.56 63.443 111.358 63.1958 111.239 62.8722L111.897 62.4931C112.021 62.9142 112.329 63.1251 112.822 63.1251C113.083 63.1251 113.292 63.0572 113.45 62.9222C113.607 62.7869 113.686 62.6039 113.686 62.3733C113.686 62.1427 113.608 61.9609 113.453 61.8279C113.298 61.6948 113.092 61.6283 112.835 61.6283H111.478L111.658 59.1279H114.251V59.846H112.362L112.283 60.884H112.868H112.868ZM116.359 60.884C116.803 60.884 117.177 61.0158 117.484 61.2794C117.789 61.5432 117.942 61.908 117.942 62.3735C117.942 62.8392 117.785 63.2046 117.47 63.4706C117.155 63.737 116.769 63.8697 116.313 63.8697C115.945 63.8697 115.619 63.7841 115.335 63.6138C115.051 63.443 114.85 63.1958 114.73 62.8722L115.389 62.4931C115.513 62.9142 115.821 63.1251 116.313 63.1251C116.575 63.1251 116.784 63.0572 116.942 62.9222C117.099 62.7869 117.178 62.6039 117.178 62.3733C117.178 62.1427 117.1 61.9609 116.945 61.8279C116.79 61.6948 116.584 61.6283 116.326 61.6283H114.97L115.149 59.1279H117.743V59.846H115.855L115.774 60.884H116.36H116.359ZM119.851 60.884C120.294 60.884 120.669 61.0158 120.975 61.2794C121.281 61.5432 121.434 61.908 121.434 62.3735C121.434 62.8392 121.277 63.2046 120.962 63.4706C120.647 63.737 120.261 63.8697 119.804 63.8697C119.437 63.8697 119.11 63.7841 118.827 63.6138C118.543 63.443 118.341 63.1958 118.222 62.8722L118.88 62.4931C119.004 62.9142 119.312 63.1251 119.805 63.1251C120.066 63.1251 120.276 63.0572 120.433 62.9222C120.591 62.7869 120.669 62.6039 120.669 62.3733C120.669 62.1427 120.592 61.9609 120.437 61.8279C120.281 61.6948 120.075 61.6283 119.818 61.6283H118.462L118.641 59.1279H121.235V59.846H119.346L119.266 60.884H119.851H119.851ZM124.46 61.3626C124.917 61.6155 125.145 61.9922 125.145 62.4933C125.145 62.9189 124.996 63.2548 124.7 63.501C124.402 63.7471 124.008 63.8699 123.516 63.8699C123.023 63.8699 122.628 63.7471 122.328 63.501C122.029 63.255 121.879 62.9189 121.879 62.4933C121.879 62.2537 121.939 62.0355 122.059 61.8379C122.179 61.641 122.348 61.4824 122.565 61.3626C122.214 61.132 122.04 60.8041 122.04 60.3784C122.04 59.9528 122.181 59.6236 122.465 59.3908C122.749 59.1581 123.099 59.0417 123.516 59.0417C123.928 59.0417 124.277 59.1581 124.564 59.3908C124.849 59.6236 124.992 59.9528 124.992 60.3784C124.992 60.8041 124.815 61.132 124.46 61.3626H124.46ZM123.516 59.7665C123.307 59.7665 123.136 59.822 123.003 59.9328C122.87 60.0439 122.804 60.2035 122.804 60.4116C122.804 60.6112 122.872 60.7689 123.006 60.884C123.142 60.9993 123.311 61.0567 123.515 61.0567C123.715 61.0567 123.883 60.9993 124.021 60.884C124.158 60.7687 124.227 60.6112 124.227 60.4116C124.227 60.2033 124.159 60.0439 124.024 59.9328C123.889 59.822 123.72 59.7665 123.515 59.7665H123.516ZM123.516 63.1451C123.773 63.1451 123.981 63.0818 124.141 62.9556C124.3 62.8289 124.38 62.6506 124.38 62.42C124.38 62.1894 124.3 62.0111 124.141 61.8844C123.981 61.7582 123.773 61.695 123.516 61.695C123.254 61.695 123.043 61.7582 122.884 61.8844C122.724 62.0111 122.644 62.1894 122.644 62.42C122.644 62.6506 122.724 62.8289 122.884 62.9556C123.043 63.0818 123.253 63.1451 123.516 63.1451Z" fill="#411001"/>
</g>
<defs>
<clipPath id="clip0_242_326">
<rect width="187.07" height="87.2436" fill="white"/>
</clipPath>
</defs>
</svg>
