<?xml version="1.0" encoding="UTF-8"?>
<!DOCTYPE svg PUBLIC "-//W3C//DTD SVG 1.1//EN" "http://www.w3.org/Graphics/SVG/1.1/DTD/svg11.dtd">
<!-- Creator: CorelDRAW 2021 (64-Bit) -->
<svg xmlns="http://www.w3.org/2000/svg" xml:space="preserve" width="1.94865in" height="0.908787in" version="1.1" style="shape-rendering:geometricPrecision; text-rendering:geometricPrecision; image-rendering:optimizeQuality; fill-rule:evenodd; clip-rule:evenodd"
viewBox="0 0 8728.61 4070.75"
 xmlns:xlink="http://www.w3.org/1999/xlink"
 xmlns:xodm="http://www.corel.com/coreldraw/odm/2003">
 <defs>
  <style type="text/css">
   <![CDATA[
    .str0 {stroke:#A56A4A;stroke-width:72.34;stroke-miterlimit:2.61313}
    .fil2 {fill:none;fill-rule:nonzero}
    .fil0 {fill:#A56A4A;fill-rule:nonzero}
    .fil1 {fill:#411001;fill-rule:nonzero}
   ]]>
  </style>
 </defs>
 <g id="Layer_x0020_1">
  <metadata id="CorelCorpID_0Corel-Layer"/>
  <g id="_2166726946464">
   <path class="fil0" d="M6438.39 1804.88c-15.48,-261.21 -155.33,-446.01 -419.54,-552.88l-270.7 -74.91c-131.86,-25.47 -199.28,-65.94 -202.27,-121.38 -1.99,-33.95 8.5,-63.91 30.98,-89.39 22.47,-24.97 51.94,-39.47 89.39,-42.45 111.88,-6.49 208.75,32.96 289.67,118.88l403.54 -382.08c-124.86,-131.86 -275.69,-219.28 -453.49,-263.22 -99.39,-24.46 -193.3,-33.45 -280.68,-26.47 -186.32,11.5 -341.13,87.91 -464,228.25 -124.87,140.34 -181.31,303.66 -169.81,489.96 15.48,254.72 145.84,438.51 390.57,551.87l265.2 81.92c103.39,19.49 174.31,42.47 213.26,68.94 14.99,10.48 23,26.47 24.99,47.95 1.98,42.96 -7,73.42 -26.49,90.89 -25.96,24.46 -68.55,37.42 -127.34,42.45 -82.39,7.05 -446.66,13.14 -839.89,15.91 -42.39,124.19 -114.1,236.35 -214.3,337.01 -93.78,94.14 -160.11,163.14 -274.91,206.44l1347.08 -4.96c202.2,-0.74 363.87,-75.8 485.46,-187.3 149.46,-137.06 217.25,-316.14 203.28,-535.4z"/>
   <polygon class="fil0" points="6496.81,808.8 6496.81,2908.45 7790.39,2908.45 7790.39,2354.08 7051.21,2354.08 7051.21,808.8 "/>
   <polygon class="fil1" points="2154.71,808.8 1481.46,1627.88 1481.46,808.8 927.06,808.8 927.06,2908.45 1481.46,2908.45 1481.46,2502.92 1730.69,2200.25 2362.49,3031.64 3056.2,3031.64 2093.27,1758.24 2873.41,808.8 "/>
   <path class="fil0" d="M3610.6 2031.94l0 -668.76 350.09 0c92.43,0 171.33,32.96 236.75,98.39 65.43,64.93 98.39,144.34 98.39,236.73 0,91.91 -32.96,170.32 -98.39,235.75 -65.43,65.41 -144.33,97.89 -236.75,97.89l-350.09 0zm-554.4 -1223.14l0 2222.84 554.4 733.13 0 -1176.95 350.09 0c245.75,0 455.5,-86.89 628.83,-261.71 173.79,-173.81 260.7,-383.07 260.7,-627.81 0,-245.71 -86.91,-455.48 -260.7,-629.29 -173.34,-173.3 -383.09,-260.21 -628.83,-260.21l-904.49 0z"/>
   <polygon class="fil2 str0" points="45.22,3258.78 36.28,36.17 7691.03,36.17 8683.62,886.98 8692.33,4034.6 930.2,4034.6 "/>
   <path class="fil1" d="M4359.61 2976.12l-45.9 -79.15 -42.22 0 0 79.15 -35.69 0 0 -217.23 86.89 0c19.45,0 35.96,6.77 49.52,20.33 13.54,13.54 20.32,30.05 20.32,49.48 0,13.86 -3.99,26.54 -11.96,38 -7.95,11.5 -18.36,19.82 -31.18,24.99l49.33 84.42 -39.1 0zm-88.12 -183.72l0 72.62 51.19 0c9.52,0 17.58,-3.51 24.21,-10.56 6.61,-7.02 9.93,-15.61 9.93,-25.75 0,-10.14 -3.32,-18.73 -9.93,-25.75 -6.63,-7.04 -14.69,-10.56 -24.21,-10.56l-51.19 0zm255.71 187.74c-32.7,0 -59.78,-10.81 -81.32,-32.43 -21.51,-21.62 -32.27,-48.36 -32.27,-80.22 0,-31.83 10.76,-58.58 32.27,-80.19 21.53,-21.64 48.62,-32.45 81.32,-32.45 19.65,0 37.81,4.67 54.46,13.97 16.65,9.31 29.64,21.94 38.94,37.86l-31.02 18.01c-5.8,-10.76 -14.23,-19.29 -25.31,-25.61 -11.06,-6.31 -23.42,-9.47 -37.07,-9.47 -23.17,0 -41.95,7.34 -56.33,22.04 -14.39,14.67 -21.57,33.3 -21.57,55.83 0,22.56 7.18,41.2 21.57,55.87 14.37,14.69 33.15,22.04 56.33,22.04 13.65,0 26.06,-3.17 37.25,-9.47 11.15,-6.31 19.54,-14.85 25.13,-25.61l31.02 17.69c-9.1,15.92 -21.97,28.6 -38.64,38 -16.65,9.43 -34.9,14.13 -54.76,14.13zm241.42 -221.25l31.04 0 0 217.23 -35.71 0 0 -179.07 -43.74 12.43 -8.69 -30.42 57.1 -20.17zm139.63 81.93c20.7,0 38.16,6.15 52.45,18.45 14.28,12.31 21.43,29.33 21.43,51.05 0,21.73 -7.35,38.78 -22.04,51.19 -14.69,12.43 -32.68,18.62 -54,18.62 -17.18,0 -32.38,-3.99 -45.62,-11.94 -13.24,-7.97 -22.64,-19.5 -28.23,-34.6l30.72 -17.69c5.8,19.65 20.17,29.49 43.14,29.49 12.2,0 21.99,-3.17 29.33,-9.47 7.34,-6.31 11,-14.85 11,-25.61 0,-10.76 -3.62,-19.24 -10.85,-25.45 -7.25,-6.21 -16.86,-9.31 -28.85,-9.31l-63.31 0 8.38 -116.67 121.01 0 0 33.51 -88.12 0 -3.72 48.43 27.3 0zm239.41 108.6c-14.99,20.47 -35.94,30.72 -62.85,30.72 -26.88,0 -47.83,-10.25 -62.83,-30.72 -14.99,-20.47 -22.5,-47.79 -22.5,-81.93 0,-34.12 7.51,-61.42 22.5,-81.9 15.01,-20.49 35.96,-30.74 62.83,-30.74 26.91,0 47.86,10.25 62.85,30.74 14.99,20.47 22.5,47.77 22.5,81.9 0,34.14 -7.51,61.46 -22.5,81.93zm-62.85 -4.02c16.15,0 28.46,-6.74 36.93,-20.19 8.48,-13.44 12.73,-32.68 12.73,-57.72 0,-25.02 -4.25,-44.26 -12.73,-57.7 -8.46,-13.44 -20.77,-20.17 -36.93,-20.17 -15.91,0 -28.18,6.74 -36.77,20.17 -8.59,13.44 -12.87,32.68 -12.87,57.7 0,25.04 4.29,44.28 12.87,57.72 8.59,13.46 20.86,20.19 36.77,20.19zm181.55 -104.58c20.69,0 38.16,6.15 52.45,18.45 14.27,12.31 21.41,29.33 21.41,51.05 0,21.73 -7.35,38.78 -22.03,51.19 -14.69,12.43 -32.68,18.62 -54,18.62 -17.18,0 -32.4,-3.99 -45.62,-11.94 -13.24,-7.97 -22.66,-19.5 -28.23,-34.6l30.7 -17.69c5.8,19.65 20.19,29.49 43.15,29.49 12.2,0 21.97,-3.17 29.33,-9.47 7.34,-6.31 11,-14.85 11,-25.61 0,-10.76 -3.62,-19.24 -10.86,-25.45 -7.25,-6.21 -16.86,-9.31 -28.85,-9.31l-63.29 0 8.36 -116.67 121.03 0 0 33.51 -88.14 0 -3.72 48.43 27.32 0zm162.91 0c20.7,0 38.16,6.15 52.45,18.45 14.27,12.31 21.41,29.33 21.41,51.05 0,21.73 -7.34,38.78 -22.03,51.19 -14.69,12.43 -32.7,18.62 -54,18.62 -17.18,0 -32.38,-3.99 -45.62,-11.94 -13.24,-7.97 -22.64,-19.5 -28.23,-34.6l30.72 -17.69c5.8,19.65 20.16,29.49 43.14,29.49 12.2,0 21.97,-3.17 29.33,-9.47 7.34,-6.31 11,-14.85 11,-25.61 0,-10.76 -3.62,-19.24 -10.86,-25.45 -7.23,-6.21 -16.84,-9.31 -28.85,-9.31l-63.31 0 8.38 -116.67 121.03 0 0 33.51 -88.12 0 -3.74 48.43 27.32 0zm162.91 0c20.69,0 38.18,6.15 52.45,18.45 14.28,12.31 21.41,29.33 21.41,51.05 0,21.73 -7.34,38.78 -22.03,51.19 -14.69,12.43 -32.68,18.62 -54,18.62 -17.16,0 -32.38,-3.99 -45.62,-11.94 -13.23,-7.97 -22.64,-19.5 -28.23,-34.6l30.72 -17.69c5.78,19.65 20.17,29.49 43.14,29.49 12.2,0 21.97,-3.17 29.33,-9.47 7.34,-6.31 11.02,-14.85 11.02,-25.61 0,-10.76 -3.63,-19.24 -10.86,-25.45 -7.25,-6.21 -16.88,-9.31 -28.87,-9.31l-63.29 0 8.38 -116.67 121.01 0 0 33.51 -88.14 0 -3.7 48.43 27.3 0zm215.06 22.33c21.3,11.8 31.97,29.38 31.97,52.76 0,19.86 -6.95,35.53 -20.79,47.02 -13.88,11.48 -32.29,17.21 -55.25,17.21 -22.96,0 -41.42,-5.73 -55.39,-17.21 -13.97,-11.48 -20.95,-27.16 -20.95,-47.02 0,-11.18 2.8,-21.36 8.38,-30.58 5.61,-9.19 13.46,-16.59 23.6,-22.18 -16.35,-10.76 -24.51,-26.06 -24.51,-45.92 0,-19.86 6.61,-35.22 19.86,-46.08 13.23,-10.86 29.57,-16.29 49.03,-16.29 19.24,0 35.53,5.43 48.88,16.29 13.33,10.86 20,26.22 20,46.08 0,19.86 -8.27,35.16 -24.81,45.92zm-44.07 -74.47c-9.73,0 -17.69,2.59 -23.9,7.76 -6.21,5.18 -9.31,12.63 -9.31,22.34 0,9.31 3.16,16.67 9.45,22.04 6.33,5.38 14.23,8.06 23.75,8.06 9.31,0 17.16,-2.68 23.6,-8.06 6.4,-5.38 9.61,-12.73 9.61,-22.04 0,-9.72 -3.16,-17.16 -9.47,-22.34 -6.3,-5.17 -14.21,-7.76 -23.74,-7.76zm0 157.64c11.99,0 21.71,-2.95 29.17,-8.84 7.44,-5.91 11.16,-14.23 11.16,-24.99 0,-10.76 -3.72,-19.08 -11.16,-24.99 -7.46,-5.89 -17.18,-8.84 -29.17,-8.84 -12.22,0 -22.03,2.95 -29.49,8.84 -7.44,5.91 -11.16,14.23 -11.16,24.99 0,10.76 3.72,19.08 11.16,24.99 7.46,5.89 17.26,8.84 29.49,8.84z"/>
  </g>
 </g>
</svg>
